<svg xmlns="http://www.w3.org/2000/svg" viewBox="0 0 512 512" role="img" aria-label="Neon River Run icon">
  <defs>
    <linearGradient id="sky" x1="74" y1="32" x2="424" y2="480" gradientUnits="userSpaceOnUse">
      <stop offset="0" stop-color="#0f172a" />
      <stop offset="0.42" stop-color="#075985" />
      <stop offset="1" stop-color="#111827" />
    </linearGradient>
    <linearGradient id="river" x1="256" y1="82" x2="256" y2="508" gradientUnits="userSpaceOnUse">
      <stop offset="0" stop-color="#a5f3fc" />
      <stop offset="0.44" stop-color="#22d3ee" />
      <stop offset="1" stop-color="#2563eb" />
    </linearGradient>
    <linearGradient id="boat" x1="256" y1="128" x2="256" y2="350" gradientUnits="userSpaceOnUse">
      <stop offset="0" stop-color="#ffffff" />
      <stop offset="0.5" stop-color="#dbeafe" />
      <stop offset="1" stop-color="#38bdf8" />
    </linearGradient>
    <linearGradient id="flame" x1="256" y1="306" x2="256" y2="396" gradientUnits="userSpaceOnUse">
      <stop offset="0" stop-color="#fef08a" />
      <stop offset="0.48" stop-color="#facc15" />
      <stop offset="1" stop-color="#fb7185" />
    </linearGradient>
    <filter id="cyanGlow" x="-45%" y="-45%" width="190%" height="190%">
      <feGaussianBlur stdDeviation="9" result="blur" />
      <feColorMatrix in="blur" type="matrix" values="0 0 0 0 0.12 0 0 0 0 0.82 0 0 0 0 0.95 0 0 0 0.9 0" />
      <feMerge>
        <feMergeNode />
        <feMergeNode in="SourceGraphic" />
      </feMerge>
    </filter>
    <filter id="warmGlow" x="-50%" y="-50%" width="200%" height="200%">
      <feGaussianBlur stdDeviation="10" result="blur" />
      <feMerge>
        <feMergeNode in="blur" />
        <feMergeNode in="SourceGraphic" />
      </feMerge>
    </filter>
    <clipPath id="round">
      <rect width="512" height="512" rx="92" />
    </clipPath>
  </defs>
  <g clip-path="url(#round)">
    <rect width="512" height="512" fill="url(#sky)" />
    <circle cx="256" cy="236" r="196" fill="#22d3ee" opacity="0.14" />
    <path d="M126 0c36 89 68 156 28 252-28 68-26 145 22 260H0V0Z" fill="#064e3b" opacity="0.86" />
    <path d="M386 0c-36 89-68 156-28 252 28 68 26 145-22 260h176V0Z" fill="#064e3b" opacity="0.86" />
    <path d="M256 54c74 94 55 154 15 220-35 58-32 122 27 244H214c59-122 62-186 27-244-40-66-59-126 15-220Z" fill="url(#river)" filter="url(#cyanGlow)" />
    <path d="M135 352c49 18 89 20 132 8 42-12 70-12 110 4" fill="none" stroke="#ecfeff" stroke-width="14" stroke-linecap="round" opacity="0.58" />
    <path d="M157 420c54 14 100 10 144-4 29-9 59-7 100 9" fill="none" stroke="#7dd3fc" stroke-width="9" stroke-linecap="round" opacity="0.46" />
    <path d="M112 126h42M400 126h-42M96 246h58M416 246h-58" stroke="#a5f3fc" stroke-width="10" stroke-linecap="round" opacity="0.22" />
    <circle cx="118" cy="84" r="13" fill="#fef08a" opacity="0.92" filter="url(#warmGlow)" />
    <circle cx="402" cy="338" r="9" fill="#f0abfc" opacity="0.9" filter="url(#warmGlow)" />
    <circle cx="378" cy="86" r="7" fill="#a7f3d0" opacity="0.9" />
    <path d="M256 112 326 328l-70-40-70 40Z" fill="#082f49" opacity="0.42" filter="url(#cyanGlow)" />
    <path d="M256 102 326 318l-70-40-70 40Z" fill="url(#boat)" stroke="#cffafe" stroke-width="10" stroke-linejoin="round" filter="url(#cyanGlow)" />
    <path d="M256 154 294 272l-38-22-38 22Z" fill="#0f172a" opacity="0.96" />
    <circle cx="256" cy="205" r="24" fill="#0f172a" stroke="#67e8f9" stroke-width="9" />
    <circle cx="256" cy="205" r="8" fill="#fef08a" opacity="0.9" />
    <path d="M206 334 256 304l50 30-50 48Z" fill="url(#flame)" filter="url(#warmGlow)" />
    <path d="M230 335 256 320l26 15-26 25Z" fill="#fff7ed" opacity="0.82" />
    <path d="M0 0h512v512H0z" fill="none" stroke="#67e8f9" stroke-opacity="0.22" stroke-width="18" />
  </g>
</svg>
